<svg aria-hidden="true"  version="1.1" xmlns="http://www.w3.org/2000/svg" xmlns:xlink="http://www.w3.org/1999/xlink">
<defs>
<symbol id="icon-worning" viewBox="0 0 34 34">
<path d="M33.5 28.988c0 0.804-0.276 1.417-0.828 1.84s-1.229 0.634-2.032 0.634h-27.782c-0.803 0-1.48-0.216-2.032-0.649s-0.828-1.041-0.828-1.825c0-0.618 0.181-1.247 0.542-1.886l13.876-24.863c0.662-1.134 1.445-1.701 2.348-1.701s1.666 0.567 2.288 1.701l13.906 24.893c0.361 0.66 0.542 1.278 0.542 1.855zM18.842 13.186v-4.515h-4.184v4.515c0 0.289 0.020 0.562 0.060 0.819s0.095 0.546 0.166 0.866c0.070 0.32 0.125 0.593 0.166 0.819l0.783 5.010h1.776l0.813-5.010c0.040-0.206 0.1-0.474 0.181-0.804s0.14-0.624 0.181-0.881c0.040-0.258 0.060-0.531 0.060-0.819zM18.842 25.153c0-0.598-0.206-1.103-0.617-1.515s-0.908-0.618-1.49-0.618c-0.562 0-1.048 0.206-1.46 0.618s-0.617 0.917-0.617 1.515c0 0.598 0.206 1.108 0.617 1.531s0.898 0.634 1.46 0.634c0.582 0 1.079-0.211 1.49-0.634s0.617-0.933 0.617-1.531z" ></path>
</symbol>
</defs>
</svg>
